<?xml version="1.0" standalone="no"?>
<!DOCTYPE svg PUBLIC "-//W3C//DTD SVG 20010904//EN"
 "http://www.w3.org/TR/2001/REC-SVG-20010904/DTD/svg10.dtd">
<svg version="1.0" xmlns="http://www.w3.org/2000/svg"
 width="200.000000pt" height="306.000000pt" viewBox="0 0 200.000000 306.000000"
 preserveAspectRatio="xMidYMid meet">
<metadata>
Created by potrace 1.15, written by Peter Selinger 2001-2017
</metadata>
<g transform="translate(0.000000,306.000000) scale(0.100000,-0.100000)"
fill="#000000" stroke="none">
<path d="M149 2871 c-31 -32 -38 -61 -14 -61 8 0 15 6 15 14 0 23 29 46 59 46
37 0 65 -32 57 -64 -7 -27 -9 -30 -76 -79 -47 -34 -86 -97 -76 -122 4 -12 25
-15 91 -15 l85 0 0 35 c0 24 -5 35 -15 35 -9 0 -15 -9 -15 -25 0 -25 -2 -26
-57 -23 -32 2 -58 8 -60 15 -5 14 64 93 81 93 26 0 66 56 68 95 3 78 -86 113
-143 56z"/>
<path d="M942 2700 c-55 -34 -65 -99 -22 -153 l19 -23 -51 0 c-66 1 -98 -32
-98 -100 0 -62 40 -104 99 -104 33 0 44 6 71 38 l32 37 -7 -35 c-4 -19 -14
-50 -21 -69 -8 -18 -14 -37 -14 -40 0 -4 23 -8 50 -8 28 0 50 3 50 8 0 6 -7
26 -15 46 -8 19 -15 50 -14 67 0 26 2 28 8 11 33 -80 144 -79 177 2 13 29 14
44 5 73 -16 53 -45 75 -97 74 l-43 -1 19 28 c22 29 26 89 10 120 -14 25 -62
49 -97 49 -15 0 -43 -9 -61 -20z"/>
<path d="M175 2537 c-12 -10 -16 -22 -13 -40 4 -21 0 -27 -18 -31 -28 -7 -42
-49 -24 -71 15 -18 56 -20 64 -2 3 6 4 0 2 -15 -2 -22 1 -28 16 -28 15 0 17 5
12 27 -7 26 -6 26 16 10 25 -18 53 -10 64 18 8 21 -9 52 -33 60 -13 4 -17 12
-13 32 5 26 -17 53 -43 53 -6 0 -19 -6 -30 -13z"/>
<path d="M930 807 c0 -1 9 -26 20 -55 29 -76 26 -95 -9 -52 -25 29 -36 35 -70
35 -55 0 -91 -36 -98 -97 -5 -40 -2 -49 25 -79 27 -30 36 -34 75 -32 l45 1
-24 -35 c-29 -43 -31 -82 -4 -115 43 -55 125 -61 174 -11 32 32 35 84 6 131
l-21 34 31 -7 c123 -27 165 170 44 204 -40 11 -79 -5 -104 -44 -18 -28 -20
-28 -20 -8 0 13 9 46 20 75 11 29 20 54 20 54 0 1 -25 2 -55 2 -30 0 -55 0
-55 -1z"/>
<path d="M1773 694 c5 -26 -2 -31 -20 -13 -8 8 -17 8 -31 0 -39 -21 -37 -66 3
-81 17 -7 21 -14 17 -39 -4 -26 0 -32 23 -41 39 -15 67 3 63 41 -2 23 2 32 22
42 32 16 37 48 11 71 -16 14 -23 15 -41 6 -19 -10 -21 -9 -18 11 2 15 -3 23
-16 25 -14 2 -17 -2 -13 -22z"/>
<path d="M1704 466 c-8 -21 -1 -61 11 -61 6 0 11 10 13 23 3 20 9 22 63 22 47
0 59 -3 59 -16 0 -30 -22 -55 -76 -90 -63 -40 -79 -68 -70 -118 5 -26 15 -40
36 -51 36 -19 54 -19 89 0 27 14 56 67 44 79 -11 11 -23 6 -23 -9 0 -23 -37
-55 -64 -55 -35 0 -58 27 -54 63 2 24 14 39 57 68 63 44 94 87 89 126 -3 28
-3 28 -86 31 -65 2 -83 0 -88 -12z"/>
</g>
</svg>
